# xmcd
#
# Track frame offsets: 
#        150
#        36875
#        52513
#        77450
#        101388
#        125338
#        145525
#        168088
#        188013
#        212875
#        232745
#        252488
#
# Disc length: 3982 seconds
#
# Revision: 0
# Processed by: cddbd v1.5.2PL0 Copyright (c) Steve Scherf et al.
# Submitted via: ExactAudioCopy v1.0b3
#
DISCID=880f8c0c
DTITLE=Nhu Mai, Quoc Si - Anh Cho Em Mua Xuan
DYEAR=1993
DGENRE=
TTITLE0=LK Canh thiep dau Xuan
TTITLE1=Nhu Mai - Con buom Xuan
TTITLE2=Anh cho em mua Xuan
TTITLE3=Ngoc Hue - Khuc ca mung Xuan
TTITLE4=Quoc Si - Cam on
TTITLE5=Nhu Mai - Xuan yeu thuong
TTITLE6=Quoc Si - Cau chuyen dau nam
TTITLE7=Duy Trong - Dau Xuan linh chuc
TTITLE8=Quoc Si - Xuan nay con khong ve
TTITLE9=Nhu Mai - Tuoi mua Xuan
TTITLE10=Nhu Mai, Tran Quoc Bao - Phien gac dem Xuan
TTITLE11=Thuy Vi - Xuan mien Nam
EXTD=
EXTT0=
EXTT1=
EXTT2=
EXTT3=
EXTT4=
EXTT5=
EXTT6=
EXTT7=
EXTT8=
EXTT9=
EXTT10=
EXTT11=
PLAYORDER=
